<svg xmlns="http://www.w3.org/2000/svg" width="47.689" height="22.039" viewBox="0 0 47.689 22.039">
  <defs>
    <style>
      .cls-1 {
        fill: #051033;
        fill-rule: evenodd;
      }
    </style>
  </defs>
  <g id="FAIR-word" transform="translate(-54.972 -0.439)">
    <path id="Fill-9" class="cls-1" d="M54.972,20.67a1.689,1.689,0,0,0,.481,1.269,1.731,1.731,0,0,0,1.284.476,1.788,1.788,0,0,0,1.3-.479,1.663,1.663,0,0,0,.493-1.266V15.51h7.759a1.732,1.732,0,0,0,1.284-.476,1.688,1.688,0,0,0,.481-1.269,1.743,1.743,0,0,0-.485-1.288,1.7,1.7,0,0,0-1.28-.488H58.534V7.143a2.8,2.8,0,0,1,.852-2.058,2.861,2.861,0,0,1,2.081-.842,2.866,2.866,0,0,1,2.9,2.9v.22a1.7,1.7,0,0,0,.513,1.269,1.738,1.738,0,0,0,1.284.507,1.7,1.7,0,0,0,1.28-.488,1.741,1.741,0,0,0,.485-1.288v-.22a6.224,6.224,0,0,0-1.863-4.566,6.29,6.29,0,0,0-4.6-1.856,6.354,6.354,0,0,0-4.633,1.841,6.13,6.13,0,0,0-1.862,4.581Z"/>
    <path id="Fill-11" class="cls-1" d="M85.932,14.8a7.36,7.36,0,0,0-2.243-5.443,8.005,8.005,0,0,0-11.029,0A7.383,7.383,0,0,0,70.433,14.8a7.433,7.433,0,0,0,2.228,5.46,7.529,7.529,0,0,0,5.506,2.217,1.754,1.754,0,0,0,1.3-.492,1.711,1.711,0,0,0,.5-1.285,1.665,1.665,0,0,0-.494-1.266,1.788,1.788,0,0,0-1.3-.479A4.158,4.158,0,0,1,73.995,14.8a3.97,3.97,0,0,1,1.217-2.921,4.062,4.062,0,0,1,2.954-1.2,4.118,4.118,0,0,1,2.968,1.2A3.947,3.947,0,0,1,82.369,14.8V20.67a1.689,1.689,0,0,0,.481,1.269,1.732,1.732,0,0,0,1.284.476,1.784,1.784,0,0,0,1.3-.479,1.662,1.662,0,0,0,.494-1.266Z"/>
    <path id="Fill-13" class="cls-1" d="M91.735,1.1a2.262,2.262,0,0,0-3.2,0,2.131,2.131,0,0,0-.672,1.583,2.131,2.131,0,0,0,.672,1.583,2.263,2.263,0,0,0,3.2,0,2.132,2.132,0,0,0,.672-1.583A2.132,2.132,0,0,0,91.735,1.1"/>
    <path id="Fill-15" class="cls-1" d="M90.134,22.415a1.785,1.785,0,0,0,1.3-.479,1.662,1.662,0,0,0,.494-1.266V8.9c0-1.207-.554-1.745-1.8-1.745a1.732,1.732,0,0,0-1.284.476A1.691,1.691,0,0,0,88.369,8.9V20.67a1.691,1.691,0,0,0,.481,1.269,1.733,1.733,0,0,0,1.284.476"/>
    <path id="Fill-17" class="cls-1" d="M100.9,7.155A6.368,6.368,0,0,0,96.278,9,6.145,6.145,0,0,0,94.4,13.545V20.67a1.691,1.691,0,0,0,.481,1.269,1.732,1.732,0,0,0,1.284.476,1.784,1.784,0,0,0,1.3-.479,1.662,1.662,0,0,0,.494-1.266V13.545a2.642,2.642,0,0,1,.826-2,3.262,3.262,0,0,1,2.012-.866c1.269-.109,1.86-.674,1.86-1.778a1.675,1.675,0,0,0-.5-1.254,1.717,1.717,0,0,0-1.268-.491"/>
  </g>
</svg>
